{
    "asset" : {
        "generator" : "Khronos glTF Blender I/O v1.5.17",
        "version" : "2.0"
    },
    "scene" : 0,
    "scenes" : [
        {
            "name" : "Scene",
            "nodes" : [
                0,
                1,
                2,
                3
            ]
        }
    ],
    "nodes" : [
        {
            "name" : "City(Kaylee).vox",
            "rotation" : [
                0.7071068286895752,
                0,
                0,
                0.7071067094802856
            ]
        },
        {
            "mesh" : 0,
            "name" : "City(Kaylee).vox.001",
            "rotation" : [
                -0.8469637036323547,
                -0.5022399425506592,
                -0.10836029052734375,
                0.1366221159696579
            ],
            "translation" : [
                -1.0399999618530273,
                -2.240000009536743,
                1.559999942779541
            ]
        },
        {
            "mesh" : 1,
            "name" : "City(Kaylee).vox.002",
            "rotation" : [
                -0.8469637036323547,
                -0.5022399425506592,
                -0.10836029052734375,
                0.1366221159696579
            ],
            "translation" : [
                -1.0399999618530273,
                -2.1599998474121094,
                1.559999942779541
            ]
        },
        {
            "mesh" : 2,
            "name" : "dec_future.vox",
            "rotation" : [
                -0.1546742022037506,
                0.4686402380466461,
                0.08984319865703583,
                0.8650899529457092
            ],
            "scale" : [
                0.3400000035762787,
                0.3400000035762787,
                0.3400000035762787
            ],
            "translation" : [
                0.6647560000419617,
                -2.970047950744629,
                0.5869719982147217
            ]
        }
    ],
    "materials" : [
        {
            "doubleSided" : true,
            "name" : "palette",
            "pbrMetallicRoughness" : {
                "baseColorTexture" : {
                    "index" : 0
                },
                "metallicFactor" : 0
            }
        },
        {
            "doubleSided" : true,
            "name" : "palette.001",
            "pbrMetallicRoughness" : {
                "baseColorTexture" : {
                    "index" : 1
                },
                "metallicFactor" : 0
            }
        },
        {
            "doubleSided" : true,
            "name" : "palette.002",
            "pbrMetallicRoughness" : {
                "baseColorTexture" : {
                    "index" : 2
                },
                "metallicFactor" : 0
            }
        },
        {
            "doubleSided" : true,
            "name" : "palette.003",
            "pbrMetallicRoughness" : {
                "baseColorTexture" : {
                    "index" : 3
                },
                "metallicFactor" : 0
            }
        }
    ],
    "meshes" : [
        {
            "name" : "City(Kaylee).vox.001",
            "primitives" : [
                {
                    "attributes" : {
                        "POSITION" : 0,
                        "NORMAL" : 1,
                        "TEXCOORD_0" : 2
                    },
                    "indices" : 3,
                    "material" : 0
                }
            ]
        },
        {
            "name" : "City(Kaylee).vox.002",
            "primitives" : [
                {
                    "attributes" : {
                        "POSITION" : 4,
                        "NORMAL" : 5,
                        "TEXCOORD_0" : 6
                    },
                    "indices" : 7,
                    "material" : 0
                },
                {
                    "attributes" : {
                        "POSITION" : 8,
                        "NORMAL" : 9,
                        "TEXCOORD_0" : 10
                    },
                    "indices" : 11,
                    "material" : 1
                },
                {
                    "attributes" : {
                        "POSITION" : 12,
                        "NORMAL" : 13,
                        "TEXCOORD_0" : 14
                    },
                    "indices" : 15,
                    "material" : 2
                }
            ]
        },
        {
            "name" : "dec_future.vox",
            "primitives" : [
                {
                    "attributes" : {
                        "POSITION" : 16,
                        "NORMAL" : 17,
                        "TEXCOORD_0" : 18
                    },
                    "indices" : 19,
                    "material" : 3
                }
            ]
        }
    ],
    "textures" : [
        {
            "sampler" : 0,
            "source" : 0
        },
        {
            "sampler" : 0,
            "source" : 1
        },
        {
            "sampler" : 0,
            "source" : 2
        },
        {
            "sampler" : 0,
            "source" : 3
        }
    ],
    "images" : [
        {
            "bufferView" : 4,
            "mimeType" : "image/png",
            "name" : "City(Kaylee).vox"
        },
        {
            "bufferView" : 13,
            "mimeType" : "image/png",
            "name" : "Farm(Simone).vox"
        },
        {
            "bufferView" : 18,
            "mimeType" : "image/png",
            "name" : "Mountain(Anjali).vox"
        },
        {
            "bufferView" : 23,
            "mimeType" : "image/png",
            "name" : "dec_future.vox"
        }
    ],
    "accessors" : [
        {
            "bufferView" : 0,
            "componentType" : 5126,
            "count" : 12,
            "max" : [
                3.484678268432617,
                2.952179431915283,
                5.510244369506836
            ],
            "min" : [
                -3.2885570526123047,
                -2.9136147499084473,
                -0.0200803279876709
            ],
            "type" : "VEC3"
        },
        {
            "bufferView" : 1,
            "componentType" : 5126,
            "count" : 12,
            "type" : "VEC3"
        },
        {
            "bufferView" : 2,
            "componentType" : 5126,
            "count" : 12,
            "type" : "VEC2"
        },
        {
            "bufferView" : 3,
            "componentType" : 5123,
            "count" : 12,
            "type" : "SCALAR"
        },
        {
            "bufferView" : 5,
            "componentType" : 5126,
            "count" : 13207,
            "max" : [
                3.5,
                3,
                0
            ],
            "min" : [
                -3.5,
                -2.9000000953674316,
                -2.799999952316284
            ],
            "type" : "VEC3"
        },
        {
            "bufferView" : 6,
            "componentType" : 5126,
            "count" : 13207,
            "type" : "VEC3"
        },
        {
            "bufferView" : 7,
            "componentType" : 5126,
            "count" : 13207,
            "type" : "VEC2"
        },
        {
            "bufferView" : 8,
            "componentType" : 5123,
            "count" : 24564,
            "type" : "SCALAR"
        },
        {
            "bufferView" : 9,
            "componentType" : 5126,
            "count" : 7630,
            "max" : [
                3.603201389312744,
                4.110467433929443,
                5.571803092956543
            ],
            "min" : [
                -3.3057212829589844,
                0.9639312028884888,
                -0.28690314292907715
            ],
            "type" : "VEC3"
        },
        {
            "bufferView" : 10,
            "componentType" : 5126,
            "count" : 7630,
            "type" : "VEC3"
        },
        {
            "bufferView" : 11,
            "componentType" : 5126,
            "count" : 7630,
            "type" : "VEC2"
        },
        {
            "bufferView" : 12,
            "componentType" : 5123,
            "count" : 14136,
            "type" : "SCALAR"
        },
        {
            "bufferView" : 14,
            "componentType" : 5126,
            "count" : 4856,
            "max" : [
                4.719137668609619,
                3.0733065605163574,
                6.312753677368164
            ],
            "min" : [
                0.06340396404266357,
                -3.6250154972076416,
                -0.21084153652191162
            ],
            "type" : "VEC3"
        },
        {
            "bufferView" : 15,
            "componentType" : 5126,
            "count" : 4856,
            "type" : "VEC3"
        },
        {
            "bufferView" : 16,
            "componentType" : 5126,
            "count" : 4856,
            "type" : "VEC2"
        },
        {
            "bufferView" : 17,
            "componentType" : 5123,
            "count" : 9306,
            "type" : "SCALAR"
        },
        {
            "bufferView" : 19,
            "componentType" : 5126,
            "count" : 32596,
            "max" : [
                10.5,
                9,
                -5.300000190734863
            ],
            "min" : [
                -10.5,
                -8.699999809265137,
                -15.300000190734863
            ],
            "type" : "VEC3"
        },
        {
            "bufferView" : 20,
            "componentType" : 5126,
            "count" : 32596,
            "type" : "VEC3"
        },
        {
            "bufferView" : 21,
            "componentType" : 5126,
            "count" : 32596,
            "type" : "VEC2"
        },
        {
            "bufferView" : 22,
            "componentType" : 5123,
            "count" : 64086,
            "type" : "SCALAR"
        }
    ],
    "bufferViews" : [
        {
            "buffer" : 0,
            "byteLength" : 144,
            "byteOffset" : 0
        },
        {
            "buffer" : 0,
            "byteLength" : 144,
            "byteOffset" : 144
        },
        {
            "buffer" : 0,
            "byteLength" : 96,
            "byteOffset" : 288
        },
        {
            "buffer" : 0,
            "byteLength" : 24,
            "byteOffset" : 384
        },
        {
            "buffer" : 0,
            "byteLength" : 220,
            "byteOffset" : 408
        },
        {
            "buffer" : 0,
            "byteLength" : 158484,
            "byteOffset" : 628
        },
        {
            "buffer" : 0,
            "byteLength" : 158484,
            "byteOffset" : 159112
        },
        {
            "buffer" : 0,
            "byteLength" : 105656,
            "byteOffset" : 317596
        },
        {
            "buffer" : 0,
            "byteLength" : 49128,
            "byteOffset" : 423252
        },
        {
            "buffer" : 0,
            "byteLength" : 91560,
            "byteOffset" : 472380
        },
        {
            "buffer" : 0,
            "byteLength" : 91560,
            "byteOffset" : 563940
        },
        {
            "buffer" : 0,
            "byteLength" : 61040,
            "byteOffset" : 655500
        },
        {
            "buffer" : 0,
            "byteLength" : 28272,
            "byteOffset" : 716540
        },
        {
            "buffer" : 0,
            "byteLength" : 410,
            "byteOffset" : 744812
        },
        {
            "buffer" : 0,
            "byteLength" : 58272,
            "byteOffset" : 745224
        },
        {
            "buffer" : 0,
            "byteLength" : 58272,
            "byteOffset" : 803496
        },
        {
            "buffer" : 0,
            "byteLength" : 38848,
            "byteOffset" : 861768
        },
        {
            "buffer" : 0,
            "byteLength" : 18612,
            "byteOffset" : 900616
        },
        {
            "buffer" : 0,
            "byteLength" : 2082,
            "byteOffset" : 919228
        },
        {
            "buffer" : 0,
            "byteLength" : 391152,
            "byteOffset" : 921312
        },
        {
            "buffer" : 0,
            "byteLength" : 391152,
            "byteOffset" : 1312464
        },
        {
            "buffer" : 0,
            "byteLength" : 260768,
            "byteOffset" : 1703616
        },
        {
            "buffer" : 0,
            "byteLength" : 128172,
            "byteOffset" : 1964384
        },
        {
            "buffer" : 0,
            "byteLength" : 1314,
            "byteOffset" : 2092556
        }
    ],
    "samplers" : [
        {
            "magFilter" : 9729,
            "minFilter" : 9987
        }
    ],
    "buffers" : [
        {
            "byteLength" : 2093872,
            "uri" : "data:application/octet-stream;base64,"
        }
    ]
}
